<svg aria-hidden="true" style="position: absolute; width: 0; height: 0; overflow: hidden;" version="1.1" xmlns="http://www.w3.org/2000/svg" xmlns:xlink="http://www.w3.org/1999/xlink">
<defs>
<symbol id="iconspoty-icon" viewBox="0 0 32 32">
<path d="M16.004 0.053c-8.812 0-15.956 7.144-15.956 15.955s7.144 15.955 15.956 15.955c8.813 0 15.956-7.143 15.956-15.955s-7.143-15.955-15.956-15.955l0-0.001zM23.321 23.065c-0.286 0.469-0.899 0.617-1.368 0.33-3.746-2.288-8.462-2.806-14.016-1.538-0.535 0.122-1.069-0.213-1.191-0.749s0.212-1.069 0.748-1.191c6.078-1.389 11.291-0.791 15.497 1.779 0.469 0.288 0.617 0.899 0.33 1.368zM25.274 18.72c-0.36 0.586-1.126 0.771-1.711 0.411-4.289-2.637-10.826-3.4-15.899-1.86-0.658 0.199-1.353-0.172-1.552-0.829-0.198-0.658 0.173-1.351 0.83-1.551 5.795-1.758 12.998-0.907 17.924 2.12 0.585 0.36 0.77 1.126 0.41 1.71v-0zM25.442 14.196c-5.142-3.054-13.627-3.335-18.536-1.845-0.788 0.239-1.622-0.206-1.861-0.994s0.206-1.622 0.995-1.862c5.636-1.711 15.005-1.38 20.926 2.134 0.711 0.421 0.943 1.337 0.522 2.045-0.419 0.709-1.337 0.943-2.044 0.522h-0.001z"></path>
</symbol>
<symbol id="iconsoundcloud-icon" viewBox="0 0 32 32">
<path fill="#000" style="fill: var(--color1, #000)" d="M31.668 16.005c0 8.891-7.135 16.005-15.771 16.005s-15.897-7.113-15.897-16.005 7.135-16.005 15.771-16.005c8.637 0 15.897 7.113 15.897 16.005z"></path>
<path fill="#fff" style="fill: var(--color2, #fff)" d="M4.671 17.074c0.006-0.053 0.044-0.090 0.091-0.090 0.046 0 0.083 0.037 0.090 0.090l0.196 1.277-0.196 1.256c-0.007 0.053-0.045 0.089-0.090 0.089-0.047 0-0.085-0.037-0.091-0.090l-0.166-1.255 0.166-1.277zM5.6 16.193c0.048 0 0.087 0.038 0.094 0.093l0.253 2.065-0.253 2.020c-0.008 0.055-0.047 0.093-0.094 0.093s-0.088-0.039-0.094-0.093l-0.223-2.019 0.223-2.065c0.007-0.054 0.046-0.093 0.094-0.093zM9.033 14.554c0.004-0.096 0.080-0.172 0.171-0.172s0.166 0.076 0.172 0.172l0.2 3.799-0.2 2.455v-0.001c-0.005 0.096-0.081 0.172-0.172 0.172s-0.167-0.076-0.171-0.172l-0.177-2.455 0.177-3.799zM7.254 15.835c0.006-0.076 0.063-0.133 0.133-0.133s0.127 0.057 0.133 0.132l0.227 2.518-0.227 2.435c-0.006 0.075-0.063 0.132-0.133 0.132s-0.128-0.057-0.133-0.132l-0.2-2.435 0.2-2.517zM11.26 20.768c-0.005 0.119-0.097 0.211-0.21 0.211s-0.206-0.093-0.21-0.211l-0.154-2.415 0.154-5.057c0.004-0.119 0.096-0.212 0.21-0.212s0.205 0.093 0.21 0.211l0.174 5.058-0.174 2.414zM15.117 20.7c-0.003 0.16-0.132 0.29-0.287 0.29s-0.285-0.13-0.288-0.289c0 0-0.108-2.344-0.108-2.348l0.108-5.839c0.002-0.16 0.131-0.291 0.288-0.291s0.285 0.131 0.287 0.291l0.121 5.841-0.121 2.345zM13.174 20.73c-0.004 0.141-0.113 0.251-0.249 0.251s-0.246-0.111-0.249-0.25l-0.132-2.377 0.131-5.095c0.003-0.141 0.112-0.251 0.249-0.251 0.136 0 0.245 0.11 0.249 0.251l0.148 5.094-0.148 2.377v-0.002zM8.444 20.807c-0.006 0.086-0.071 0.152-0.152 0.152-0.082 0-0.147-0.066-0.152-0.152l-0.188-2.455 0.188-2.335c0.005-0.087 0.070-0.152 0.152-0.152s0.146 0.065 0.152 0.151l0.214 2.336-0.214 2.456zM6.603 20.712c-0.007 0.065-0.055 0.113-0.114 0.113-0.060 0-0.108-0.047-0.114-0.113l-0.212-2.36 0.212-2.45c0.006-0.065 0.054-0.113 0.114-0.113s0.107 0.047 0.114 0.113l0.24 2.45-0.24 2.361zM13.605 13.446c0.003-0.152 0.121-0.271 0.269-0.271s0.265 0.119 0.268 0.271l0.135 4.909-0.135 2.362v-0.002c-0.003 0.152-0.121 0.271-0.268 0.271s-0.266-0.119-0.269-0.269l-0.12-2.362 0.12-4.909zM10.314 20.792c-0.005 0.108-0.089 0.192-0.191 0.192-0.103 0-0.187-0.084-0.191-0.191l-0.166-2.44 0.166-4.668c0.004-0.108 0.088-0.192 0.191-0.192s0.186 0.084 0.191 0.192l0.187 4.668-0.187 2.439zM12.213 20.754v-0c-0.004 0.129-0.105 0.23-0.229 0.23s-0.226-0.102-0.229-0.23l-0.143-2.4 0.143-5.228c0.003-0.13 0.104-0.232 0.229-0.232s0.225 0.102 0.229 0.232l0.161 5.228-0.161 2.398v0.001zM23.298 15.56c0.332-0.141 0.696-0.219 1.078-0.219 1.539 0 2.787 1.266 2.787 2.828s-1.248 2.828-2.787 2.828c-0.050 0-7.718-0.004-7.725-0.005-0.166-0.017-0.299-0.161-0.301-0.334v-8.976c0.002-0.165 0.058-0.25 0.268-0.333 0.541-0.212 1.154-0.338 1.783-0.338 2.569 0 4.675 1.999 4.897 4.548zM15.473 11.985c0.002-0.171 0.14-0.311 0.307-0.311s0.304 0.139 0.307 0.31l0.137 6.371-0.137 2.312v-0.003c-0.003 0.171-0.14 0.311-0.307 0.311s-0.305-0.139-0.307-0.308l-0.126-2.312 0.126-6.371z"></path>
</symbol>
<symbol id="iconapple_podcasts-icon" viewBox="0 0 32 32">
<path fill="#000" style="fill: var(--color1, #000)" d="M31.376 27.744c-0.311 0.79-1.029 1.903-2.047 2.687-0.588 0.453-1.29 0.886-2.254 1.171-1.028 0.305-2.293 0.407-3.869 0.407h-14.404c-1.575 0-2.841-0.103-3.869-0.407-0.964-0.286-1.666-0.718-2.254-1.171-1.018-0.784-1.736-1.897-2.047-2.687-0.627-1.592-0.633-3.399-0.633-4.537v-14.404c0-1.138 0.006-2.945 0.633-4.537 0.311-0.79 1.029-1.903 2.047-2.687 0.588-0.453 1.29-0.885 2.254-1.171 1.028-0.305 2.293-0.407 3.869-0.407h14.404c1.575 0 2.841 0.103 3.869 0.407 0.964 0.286 1.666 0.718 2.254 1.171 1.018 0.784 1.736 1.897 2.047 2.687 0.627 1.592 0.633 3.399 0.633 4.537v14.404c-0 1.138-0.007 2.945-0.633 4.537z"></path>
<path fill="#fff" style="fill: var(--color2, #fff)" d="M18.326 18.399c-0.48-0.507-1.324-0.832-2.32-0.832s-1.84 0.325-2.32 0.832c-0.251 0.264-0.383 0.536-0.425 0.922-0.081 0.748-0.035 1.392 0.052 2.421 0.083 0.981 0.242 2.289 0.449 3.622 0.147 0.948 0.267 1.46 0.376 1.826 0.177 0.594 0.836 1.113 1.868 1.113s1.692-0.52 1.868-1.113c0.109-0.366 0.228-0.878 0.376-1.826 0.207-1.332 0.365-2.641 0.449-3.622 0.088-1.030 0.133-1.674 0.052-2.421-0.042-0.386-0.174-0.657-0.425-0.922zM13.389 13.886c0 1.447 1.173 2.62 2.62 2.62s2.62-1.173 2.62-2.62c0-1.447-1.173-2.62-2.62-2.62s-2.62 1.173-2.62 2.62zM15.976 3.548c-6.127 0.017-11.147 4.988-11.223 11.114-0.062 4.963 3.106 9.208 7.53 10.764 0.107 0.038 0.216-0.051 0.199-0.164-0.058-0.385-0.113-0.773-0.163-1.153-0.018-0.135-0.104-0.251-0.228-0.305-3.496-1.528-5.938-5.034-5.899-9.096 0.051-5.33 4.404-9.676 9.735-9.719 5.449-0.044 9.897 4.376 9.897 9.816 0 4.021-2.431 7.485-5.9 9-0.124 0.054-0.209 0.171-0.227 0.305-0.050 0.381-0.105 0.768-0.163 1.153-0.017 0.113 0.092 0.202 0.199 0.164 4.381-1.541 7.531-5.72 7.531-10.622-0-6.218-5.067-11.274-11.289-11.256zM15.773 8.712c3.473-0.134 6.341 2.652 6.341 6.096 0 1.751-0.742 3.333-1.928 4.446-0.101 0.094-0.155 0.228-0.147 0.366 0.024 0.419 0.015 0.826-0.013 1.286-0.008 0.122 0.13 0.201 0.231 0.132 1.989-1.359 3.297-3.644 3.297-6.23 0-4.257-3.546-7.701-7.839-7.535-3.99 0.155-7.191 3.444-7.242 7.437-0.034 2.626 1.283 4.952 3.297 6.328 0.101 0.069 0.238-0.009 0.231-0.132-0.028-0.46-0.037-0.867-0.013-1.286 0.008-0.138-0.046-0.272-0.147-0.366-1.223-1.148-1.974-2.794-1.926-4.61 0.084-3.197 2.662-5.808 5.857-5.932z"></path>
</symbol>
<symbol id="iconovercast-icon" viewBox="0 0 32 32">
<path stroke-linejoin="miter" stroke-linecap="round" stroke-miterlimit="4" stroke-width="2.4258" d="M15.942 30.009c7.769 0 14.066-6.298 14.066-14.066s-6.298-14.066-14.066-14.066-14.066 6.298-14.066 14.066 6.298 14.066 14.066 14.066z"></path>
<path d="M8.305 10.002s-1.945 2.194-1.945 6.028c0 3.834 1.945 5.94 1.945 5.94z"></path>
<path stroke-linejoin="miter" stroke-linecap="round" stroke-miterlimit="4" stroke-width="2.4258" d="M8.305 10.002s-1.945 2.194-1.945 6.028c0 3.834 1.945 5.94 1.945 5.94"></path>
<path d="M23.803 10.002s1.945 2.194 1.945 6.028c0 3.834-1.945 5.94-1.945 5.94z"></path>
<path stroke-linejoin="miter" stroke-linecap="round" stroke-miterlimit="4" stroke-width="2.4258" d="M23.803 10.002s1.945 2.194 1.945 6.028c0 3.834-1.945 5.94-1.945 5.94"></path>
<path d="M20.7 12.566s1.31 1.632 1.278 3.456c-0.040 2.194-1.262 3.4-1.262 3.4z"></path>
<path stroke-linejoin="miter" stroke-linecap="round" stroke-miterlimit="4" stroke-width="2.4258" d="M20.7 12.566s1.31 1.632 1.278 3.456c-0.040 2.194-1.262 3.4-1.262 3.4"></path>
<path d="M11.344 12.566s-1.31 1.632-1.278 3.456c0.040 2.194 1.262 3.4 1.262 3.4z"></path>
<path stroke-linejoin="miter" stroke-linecap="round" stroke-miterlimit="4" stroke-width="2.4258" d="M11.344 12.566s-1.31 1.632-1.278 3.456c0.040 2.194 1.262 3.4 1.262 3.4"></path>
<path d="M15.94 18.126c1.206 0 2.183-0.978 2.183-2.184s-0.978-2.183-2.183-2.183c-1.206 0-2.184 0.978-2.184 2.183s0.978 2.184 2.184 2.184z"></path>
<path d="M16.309 17.982l-1.549-0.416-2.579 9.635 1.549 0.416 2.579-9.635z"></path>
<path d="M15.71 17.969l1.542-0.409 2.566 9.641-1.542 0.409-2.566-9.641z"></path>
<path d="M14.277 23.168l0.573-0.587 3.971 3.869-0.573 0.587-3.971-3.869z"></path>
<path d="M17.64 23.189l-0.519-0.525-3.937 3.91 0.519 0.525 3.937-3.91z"></path>
</symbol>
<symbol id="iconpocket_casts-icon" viewBox="0 0 32 32">
<path d="M15.664 30.009c7.734 0 14.004-6.27 14.004-14.004s-6.27-14.004-14.004-14.004c-7.734 0-14.004 6.27-14.004 14.004s6.27 14.004 14.004 14.004z"></path>
<path d="M16.191 0c-8.578 0-15.532 7.165-15.532 16.005s6.953 16.005 15.532 16.005c8.578 0 15.532-7.165 15.532-16.005s-6.953-16.005-15.532-16.005zM21.002 16.153c0-2.656-2.090-4.81-4.668-4.81s-4.667 2.153-4.667 4.81c0 2.656 2.090 4.809 4.667 4.809v2.748c-4.050 0-7.334-3.384-7.334-7.558s3.284-7.558 7.334-7.558c4.051 0 7.335 3.384 7.335 7.558h-2.667zM25.503 16.153c0-5.217-4.104-9.447-9.168-9.447s-9.168 4.23-9.168 9.447c0 5.217 4.105 9.447 9.168 9.447v3.149c-6.751 0-12.224-5.64-12.224-12.596s5.473-12.596 12.224-12.596c6.751 0 12.224 5.639 12.224 12.596h-3.056z"></path>
</symbol>




<symbol id="iconfacebook-icon" viewBox="0 0 32 32">
      <path stroke-linejoin="round" stroke-linecap="round" stroke-width="2.6667" d="M24 2.667h-4c-1.768 0-3.464.702-4.714 1.953s-1.953 2.946-1.953 4.714v4h-4v5.333h4v10.667h5.333V18.667h4l1.333-5.333h-5.333v-4c0-.354.141-.693.391-.943S19.646 8 20 8h4V2.667z"/>
    </symbol>
    <symbol id="iconimstagram-icon" viewBox="0 0 32 32">
      <path stroke-linejoin="round" stroke-linecap="round" stroke-width="2.6667" d="M22.667 2.667H9.334c-3.682 0-6.667 2.985-6.667 6.667v13.333c0 3.682 2.985 6.667 6.667 6.667h13.333c3.682 0 6.667-2.985 6.667-6.667V9.334c0-3.682-2.985-6.667-6.667-6.667z"/>
      <path stroke-linejoin="round" stroke-linecap="round" stroke-width="2.6667" d="M21.333 15.16c.165 1.11-.025 2.243-.542 3.239s-1.334 1.803-2.336 2.308c-1.002.504-2.138.68-3.245.502s-2.131-.701-2.924-1.494c-.793-.793-1.316-1.816-1.494-2.924s-.003-2.243.502-3.245c.504-1.002 1.312-1.82 2.307-2.336s2.129-.706 3.239-.542c1.132.168 2.18.695 2.989 1.504s1.337 1.857 1.505 2.989zM23.333 8.667h.013"/>
    </symbol>
    <symbol id="iconstar-icon" viewBox="0 0 34 32">
      <path d="m16.965 25.784 7.812 4.725c1.431.866 3.181-.414 2.805-2.033l-2.071-8.885 6.908-5.986c1.261-1.092.584-3.162-1.073-3.294l-9.092-.772-3.558-8.395c-.64-1.525-2.824-1.525-3.464 0L11.674 9.52l-9.092.772c-1.656.132-2.334 2.202-1.073 3.294l6.908 5.986-2.071 8.885c-.376 1.619 1.374 2.899 2.805 2.033l7.812-4.706z"/>
    </symbol>
    <symbol id="icontwitter-icon" viewBox="0 0 32 32">
      <path stroke-linejoin="round" stroke-linecap="round" stroke-width="2.6667" d="M30.667 4c-1.277.901-2.691 1.589-4.187 2.04-.803-.923-1.87-1.578-3.057-1.875s-2.437-.222-3.58.214c-1.143.436-2.125 1.213-2.812 2.226S15.984 8.816 16 10.04v1.333c-2.343.061-4.665-.459-6.759-1.513S5.347 7.251 4 5.333c0 0-5.333 12 6.667 17.333-2.746 1.864-6.017 2.799-9.333 2.667 12 6.667 26.667 0 26.667-15.333 0-.373-.04-.747-.107-1.107C29.255 7.551 30.215 5.857 30.667 4z"/>
    </symbol>
</defs>
</svg>
